<?xml version="1.0" encoding="utf-8"?>
<!-- Generator: Adobe Illustrator 26.0.1, SVG Export Plug-In . SVG Version: 6.00 Build 0)  -->
<svg version="1.1" id="Layer_1" xmlns="http://www.w3.org/2000/svg" xmlns:xlink="http://www.w3.org/1999/xlink" x="0px" y="0px"
	 viewBox="0 0 780 440" style="enable-background:new 0 0 780 440;" xml:space="preserve">
<style type="text/css">
	.st0{fill:#56ADF5;}
	.st1{fill:none;stroke:#162020;stroke-miterlimit:10;}
	.st2{fill:#3896E3;}
	.st3{fill:#FFFFFF;stroke:#162020;stroke-miterlimit:10;}
	.st4{fill:#3896E3;stroke:#162020;stroke-miterlimit:10;}
	.st5{fill:#FFFFFF;}
	.st6{fill:#116DAA;stroke:#162020;stroke-miterlimit:10;}
</style>
<g id="Background">
	<rect x="0" y="0" class="st0" width="780" height="440"/>
</g>
<line class="st1" x1="389.9" y1="235" x2="143.9" y2="135"/>
<line class="st1" x1="307.3" y1="219.3" x2="189.2" y2="248.8"/>
<line class="st1" x1="389.9" y1="235" x2="165.1" y2="345.6"/>
<g>
	<circle class="st2" cx="135.3" cy="131.8" r="19.8"/>
	<path class="st3" d="M123.4,147.6c8.7,6.6,21.1,4.8,27.7-3.9c-0.9-4.1-5-7.2-15.3-7.3c-10.4-0.1-15.2,3-16.5,7.1
		C120.5,145,121.9,146.4,123.4,147.6z"/>
	<circle class="st3" cx="135.3" cy="125.1" r="7.8"/>
	<circle class="st1" cx="135.3" cy="131.8" r="19.8"/>
</g>
<g>
	<circle class="st2" cx="167" cy="343.8" r="19.8"/>
	<path class="st3" d="M155.2,359.6c8.7,6.6,21.1,4.8,27.7-3.9c-0.9-4.1-5-7.2-15.3-7.3c-10.4-0.1-15.2,3-16.5,7.1
		C152.2,357.1,153.6,358.4,155.2,359.6z"/>
	<circle class="st3" cx="167" cy="337.1" r="7.8"/>
	<circle class="st1" cx="167" cy="343.8" r="19.8"/>
</g>
<g>
	<circle class="st2" cx="189.2" cy="248.8" r="19.8"/>
	<path class="st3" d="M177.4,264.6c8.7,6.6,21.1,4.8,27.7-3.9c-0.9-4.1-5-7.2-15.3-7.3c-10.4-0.1-15.2,3-16.5,7.1
		C174.5,262.1,175.8,263.4,177.4,264.6z"/>
	<circle class="st3" cx="189.2" cy="242.1" r="7.8"/>
	<circle class="st1" cx="189.2" cy="248.8" r="19.8"/>
</g>
<line class="st1" x1="389.9" y1="235" x2="595.8" y2="85"/>
<line class="st1" x1="472.5" y1="219.3" x2="580.6" y2="198.8"/>
<line class="st1" x1="644.6" y1="325.6" x2="389.9" y2="235"/>
<g>
	<rect x="282.2" y="139.2" class="st3" width="215.6" height="161.6"/>
	<rect x="296.2" y="181.7" class="st4" width="187.5" height="104.4"/>
	<circle class="st4" cx="306.6" cy="162.2" r="10.4"/>
	<line class="st1" x1="326.5" y1="161.2" x2="393.9" y2="161.2"/>
	<path class="st5" d="M378.5,260c23.2,0,35.8-19.2,35.8-35.8c0-0.6,0-1,0-1.6c2.4-1.7,4.5-4,6.3-6.5c-2.3,1-4.8,1.6-7.2,2
		c2.7-1.6,4.7-4.1,5.6-7c-2.4,1.5-5.1,2.4-8,3c-4.8-5.1-12.7-5.4-17.8-0.6c-2.6,2.3-4,5.7-4,9.2c0,0.9,0.1,2,0.3,2.9
		c-10.1-0.5-19.6-5.2-26-13.2c-3.4,5.7-1.6,13.2,3.8,16.8c-2,0-4-0.6-5.7-1.6v0.1c0,5.9,4.2,11.2,10.1,12.4c-1,0.3-2.2,0.5-3.4,0.5
		c-0.8,0-1.5-0.1-2.3-0.2c1.6,5.1,6.4,8.6,11.8,8.7c-5.2,4.1-12,5.9-18.7,5.2C365.1,258,371.7,260,378.5,260"/>
</g>
<g>
	<polyline class="st4" points="475,0 475,122.5 305,122.5 305,0 	"/>
	<rect x="316" y="28.5" class="st6" width="147.9" height="82.3"/>
	<circle class="st6" cx="324.2" cy="13.1" r="8.2"/>
	<line class="st1" x1="339.9" y1="12.4" x2="393.1" y2="12.4"/>
	<line class="st1" x1="327.2" y1="42" x2="452.8" y2="42"/>
	<line class="st1" x1="327.2" y1="50.9" x2="452.8" y2="50.9"/>
	<line class="st1" x1="327.2" y1="59.8" x2="420.4" y2="59.8"/>
	<line class="st1" x1="327.2" y1="79.8" x2="439.8" y2="79.8"/>
	<line class="st1" x1="327.2" y1="88.7" x2="439.8" y2="88.7"/>
	<line class="st1" x1="327.2" y1="97.6" x2="394.4" y2="97.6"/>
</g>
<g>
	<polyline class="st4" points="305,440 305,317.5 475,317.5 475,440 	"/>
	<rect x="316" y="349.1" class="st6" width="147.9" height="82.3"/>
	<circle class="st6" cx="324.2" cy="333.6" r="8.2"/>
	<line class="st1" x1="339.9" y1="332.9" x2="393.1" y2="332.9"/>
	<line class="st1" x1="327.2" y1="362.6" x2="452.8" y2="362.6"/>
	<line class="st1" x1="327.2" y1="371.5" x2="452.8" y2="371.5"/>
	<line class="st1" x1="327.2" y1="380.4" x2="420.4" y2="380.4"/>
	<line class="st1" x1="327.2" y1="400.3" x2="439.8" y2="400.3"/>
	<line class="st1" x1="327.2" y1="409.2" x2="439.8" y2="409.2"/>
	<line class="st1" x1="327.2" y1="418.1" x2="394.4" y2="418.1"/>
</g>
<g>
	<circle class="st2" cx="604.5" cy="81.8" r="19.8"/>
	<path class="st3" d="M620.4,93.5c-1.2-4.1-6.1-7.2-16.5-7.1c-10.3,0.1-14.4,3.2-15.3,7.3c6.6,8.7,19,10.5,27.7,3.9
		C617.9,96.4,619.3,95,620.4,93.5z"/>
	<circle class="st3" cx="604.5" cy="75.1" r="7.8"/>
	<circle class="st1" cx="604.5" cy="81.8" r="19.8"/>
</g>
<g>
	<circle class="st2" cx="642.8" cy="323.8" r="19.8"/>
	<path class="st3" d="M658.7,335.5c-1.2-4.1-6.1-7.2-16.5-7.1c-10.3,0.1-14.4,3.2-15.3,7.3c6.6,8.7,19,10.5,27.7,3.9
		C656.2,338.4,657.5,337.1,658.7,335.5z"/>
	<circle class="st3" cx="642.8" cy="317.1" r="7.8"/>
	<circle class="st1" cx="642.8" cy="323.8" r="19.8"/>
</g>
<g>
	<circle class="st2" cx="580.6" cy="198.8" r="19.8"/>
	<path class="st3" d="M596.5,210.5c-1.2-4.1-6.1-7.2-16.5-7.1c-10.3,0.1-14.4,3.2-15.3,7.3c6.6,8.7,19,10.5,27.7,3.9
		C593.9,213.4,595.3,212.1,596.5,210.5z"/>
	<circle class="st3" cx="580.6" cy="192.1" r="7.8"/>
	<circle class="st1" cx="580.6" cy="198.8" r="19.8"/>
</g>
</svg>
